<svg xmlns="http://www.w3.org/2000/svg" viewBox="0 0 858.09 99.98"><defs><style>.cls-1{fill:#fff;}</style></defs><title>Recurso 2</title><g id="Capa_2" data-name="Capa 2"><g id="Capa_1-2" data-name="Capa 1"><path class="cls-1" d="M90.31,21.23,76.79,30.86a32.7,32.7,0,0,0-11-10A32,32,0,0,0,52.85,17a34.93,34.93,0,0,0-13.23,1.58A33.88,33.88,0,0,0,28,25,33,33,0,0,0,19.7,35.68a32.13,32.13,0,0,0-3.16,14.45A32.13,32.13,0,0,0,19.7,64.58,33.84,33.84,0,0,0,28,75.37a32.15,32.15,0,0,0,11.65,6.4,35.48,35.48,0,0,0,13.23,1.51,32,32,0,0,0,12.94-3.89,32.7,32.7,0,0,0,11-10L90.31,79A48,48,0,0,1,73.84,94a49.14,49.14,0,0,1-19.48,5.83,51.27,51.27,0,0,1-19.77-2.31A50.48,50.48,0,0,1,17.18,88,48.58,48.58,0,0,1,0,50.13,48.58,48.58,0,0,1,17.18,12.31,50.64,50.64,0,0,1,34.59,2.75,51.27,51.27,0,0,1,54.36.45,48.44,48.44,0,0,1,73.84,6.34,49.4,49.4,0,0,1,90.31,21.23Z"/><path class="cls-1" d="M167.1,16.91H118.64V39.35H102.1V.37h65Zm0,83h-65v-58h56.66V58.47H118.64V83.35H167.1Z"/><path class="cls-1" d="M258.56,99.89,179.61,23.38V.37L242,60.77V16.91H231.92L221,.37h37.61Zm-62.41,0H179.61V26.83l16.54,16.11Z"/><path class="cls-1" d="M332.19,16.77H306.88V99.89H290.35V16.77H264.89V.23h67.3Z"/><path class="cls-1" d="M406.11,16.91H357.65V39.35H341.11V.37h65Zm0,83h-65v-58h56.66V58.47H357.65V83.35h48.46Z"/><path class="cls-1" d="M468.85,65.37l24.26,34.52H472.88L437.71,50H460a16.38,16.38,0,0,0,6.48-1.3,16.46,16.46,0,0,0,8.78-8.81,17,17,0,0,0,0-13,16.4,16.4,0,0,0-8.77-8.81,16.15,16.15,0,0,0-6.47-1.3H435.16V99.89H418.62V.23H460a32.31,32.31,0,0,1,12.92,2.59,33.28,33.28,0,0,1,17.66,17.69,33.57,33.57,0,0,1,.79,23.72,33.71,33.71,0,0,1-4.95,9.35,32.83,32.83,0,0,1-7.68,7.26A31.91,31.91,0,0,1,468.85,65.37Z"/><path class="cls-1" d="M591.18,51.14l41.71,48.75H611L580.54,64.22,566.45,81.34V99.89H549.91V75.44L611.46.23h21.43ZM566.45,51,549.91,71.27V.23h16.54Z"/><path class="cls-1" d="M658.34,99.89H641.8V.37h16.54Z"/><path class="cls-1" d="M754.84,99.89l-79-76.51V.37l62.41,60.4V16.91H728.2L717.23.37h37.61Zm-62.42,0H675.89V26.83l16.53,16.11Z"/><path class="cls-1" d="M858.09,41.65V78.89a48.08,48.08,0,0,1-16.47,15,49.13,49.13,0,0,1-19.48,5.82,51.34,51.34,0,0,1-19.78-2.3A50.69,50.69,0,0,1,785,87.81,49.13,49.13,0,0,1,772.52,71.7,48.52,48.52,0,0,1,767.78,50a48.56,48.56,0,0,1,4.74-21.72A49.09,49.09,0,0,1,785,12.17a51.56,51.56,0,0,1,17.4-9.64A50.44,50.44,0,0,1,822.14.16a48.6,48.6,0,0,1,19.48,5.89,49.4,49.4,0,0,1,16.47,14.89l-13.55,9.78a32.91,32.91,0,0,0-23.19-13.81,33.31,33.31,0,0,0-33,16.83,32.15,32.15,0,0,0-4,13.8,31.73,31.73,0,0,0,1.94,14.17,33.06,33.06,0,0,0,7.07,11.07,34.68,34.68,0,0,0,23.21,10.43,33.17,33.17,0,0,0,13.12-2.16,31.73,31.73,0,0,0,11.89-8V58.18H811.21V41.65Z"/></g></g></svg>