<svg xmlns="http://www.w3.org/2000/svg" viewBox="0 0 858.09 568.44"><defs><style>.cls-1{fill:#fff;}.cls-2{fill:#a02222;}</style></defs><title>Recurso 4</title><g id="Capa_2" data-name="Capa 2"><g id="Capa_1-2" data-name="Capa 1"><rect class="cls-1" x="258.76" width="341.55" height="341.55" rx="5" transform="translate(258.76 600.31) rotate(-90)"/><path class="cls-1" d="M90.31,417.58l-13.52,9.63a32.7,32.7,0,0,0-11-10,32,32,0,0,0-12.94-3.89,34.93,34.93,0,0,0-13.23,1.58A33.88,33.88,0,0,0,28,421.31,33,33,0,0,0,19.7,432a34.62,34.62,0,0,0,0,28.9A33.84,33.84,0,0,0,28,471.72a32.15,32.15,0,0,0,11.65,6.4,35.69,35.69,0,0,0,13.23,1.51,32,32,0,0,0,12.94-3.89,32.7,32.7,0,0,0,11-10l13.52,9.64a48,48,0,0,1-16.47,14.95,49.14,49.14,0,0,1-19.48,5.83,51.27,51.27,0,0,1-19.77-2.31,50.48,50.48,0,0,1-17.41-9.56,49.78,49.78,0,0,1,0-75.64,50.64,50.64,0,0,1,17.41-9.56,51.27,51.27,0,0,1,19.77-2.3,48.44,48.44,0,0,1,19.48,5.89A49.4,49.4,0,0,1,90.31,417.58Z"/><path class="cls-1" d="M167.1,413.26H118.64V435.7H102.1v-39h65Zm0,83h-65v-58h56.66v16.54H118.64V479.7H167.1Z"/><path class="cls-1" d="M258.56,496.24l-78.95-76.51v-23L242,457.12V413.26H231.92l-11-16.54h37.61Zm-62.41,0H179.61V423.18l16.54,16.11Z"/><path class="cls-1" d="M332.19,413.12H306.88v83.12H290.35V413.12H264.89V396.58h67.3Z"/><path class="cls-1" d="M406.11,413.26H357.65V435.7H341.11v-39h65Zm0,83h-65v-58h56.66v16.54H357.65V479.7h48.46Z"/><path class="cls-1" d="M468.85,461.72l24.26,34.52H472.88l-35.17-49.9H460a16.38,16.38,0,0,0,6.48-1.3,16.46,16.46,0,0,0,8.78-8.81,17,17,0,0,0,0-13,16.4,16.4,0,0,0-8.77-8.81,16.15,16.15,0,0,0-6.47-1.3H435.16v83.12H418.62V396.58H460a32.31,32.31,0,0,1,12.92,2.59,33.28,33.28,0,0,1,17.66,17.69,33.57,33.57,0,0,1,.79,23.72,33.71,33.71,0,0,1-4.95,9.35,32.83,32.83,0,0,1-7.68,7.26A31.91,31.91,0,0,1,468.85,461.72Z"/><path class="cls-1" d="M591.18,447.49l41.71,48.75H611l-30.49-35.67-14.09,17.12v18.55H549.91V471.79l61.55-75.21h21.43Zm-24.73-.15-16.54,20.28v-71h16.54Z"/><path class="cls-1" d="M658.34,496.24H641.8V396.72h16.54Z"/><path class="cls-1" d="M754.84,496.24l-79-76.51v-23l62.41,60.4V413.26H728.2l-11-16.54h37.61Zm-62.42,0H675.89V423.18l16.53,16.11Z"/><path class="cls-1" d="M858.09,438v37.24a48.08,48.08,0,0,1-16.47,15A49.13,49.13,0,0,1,822.14,496a51.34,51.34,0,0,1-19.78-2.3,50.69,50.69,0,0,1-17.4-9.56,49.13,49.13,0,0,1-12.44-16.11,52.11,52.11,0,0,1,0-43.43A49.09,49.09,0,0,1,785,408.52a51.56,51.56,0,0,1,17.4-9.64,50.44,50.44,0,0,1,19.78-2.37,48.6,48.6,0,0,1,19.48,5.89,49.4,49.4,0,0,1,16.47,14.89l-13.55,9.78a32.91,32.91,0,0,0-23.19-13.81,33.31,33.31,0,0,0-33,16.83,32.15,32.15,0,0,0-4,13.8,31.73,31.73,0,0,0,1.94,14.17,33.06,33.06,0,0,0,7.07,11.07,34.68,34.68,0,0,0,23.21,10.43,33.17,33.17,0,0,0,13.12-2.16,31.73,31.73,0,0,0,11.89-8V454.53H811.21V438Z"/><path class="cls-1" d="M274.39,567.39l5.94-41.5H281L297.88,560l16.71-34.06h.66l6,41.5h-4.06l-4.11-29.68-14.67,29.68h-1.06l-14.85-29.9-4.07,29.9Z"/><path class="cls-1" d="M341.07,525.89h4.15V551a52.36,52.36,0,0,0,.17,5.55,9.29,9.29,0,0,0,1.44,4.11,8.45,8.45,0,0,0,3.47,2.76,10.77,10.77,0,0,0,4.71,1.12,9.21,9.21,0,0,0,3.95-.88,8.82,8.82,0,0,0,3.16-2.42,9.86,9.86,0,0,0,1.86-3.75,31.36,31.36,0,0,0,.42-6.49V525.89h4.15V551a30.63,30.63,0,0,1-1.08,9,12.26,12.26,0,0,1-4.35,6,12.46,12.46,0,0,1-7.89,2.54,15.11,15.11,0,0,1-8.6-2.4,11.54,11.54,0,0,1-4.8-6.35,34,34,0,0,1-.76-8.74Z"/><path class="cls-1" d="M390.35,525.89h23.78V530H394.5v13H414V547H394.5v16.31H414v4.06H390.35Z"/><path class="cls-1" d="M433,525.89h8.18a19.45,19.45,0,0,1,7.59,1.17,9.41,9.41,0,0,1,4.19,3.6,9.89,9.89,0,0,1,1.53,5.39,9.7,9.7,0,0,1-1.34,5,10,10,0,0,1-4,3.68,15.36,15.36,0,0,1,5,2.58,10.4,10.4,0,0,1,2.71,3.58,10.69,10.69,0,0,1,1,4.56,11.21,11.21,0,0,1-3.65,8.45q-3.66,3.45-9.81,3.45H433ZM437,530v13.28h2.37a18.51,18.51,0,0,0,6.37-.8A6.88,6.88,0,0,0,449,539.9a6.69,6.69,0,0,0,1.19-3.85,5.45,5.45,0,0,0-2-4.47c-1.33-1.08-3.44-1.62-6.35-1.62Zm0,17.46v15.91h5.14a18.24,18.24,0,0,0,6.67-.89,7.61,7.61,0,0,0,3.41-2.78,7.17,7.17,0,0,0,1.28-4.09,7.05,7.05,0,0,0-1.81-4.82,9.3,9.3,0,0,0-5-2.82,36.08,36.08,0,0,0-7.37-.51Z"/><path class="cls-1" d="M477.59,525.89h4.14v37.5h16v4H477.59Z"/><path class="cls-1" d="M515.86,525.89h23.78V530H520v13h19.46V547H520v16.31h19.46v4.06H515.86Z"/><path class="cls-1" d="M554.08,559.66l3.52-2.11q3.72,6.86,8.61,6.85a8.22,8.22,0,0,0,3.92-1,6.91,6.91,0,0,0,2.79-2.61,6.75,6.75,0,0,0,1-3.47,7.05,7.05,0,0,0-1.41-4.09,34.11,34.11,0,0,0-7.11-6.66q-5.19-3.92-6.46-5.67a10.33,10.33,0,0,1-2.2-6.35,9.56,9.56,0,0,1,1.3-4.93,9.23,9.23,0,0,1,3.65-3.52,10.6,10.6,0,0,1,5.12-1.28,10.89,10.89,0,0,1,5.49,1.45,18.83,18.83,0,0,1,5.4,5.35l-3.38,2.57a16.22,16.22,0,0,0-4-4.09,6.83,6.83,0,0,0-3.59-1,5.72,5.72,0,0,0-4.11,1.52,5,5,0,0,0-1.59,3.75,6.51,6.51,0,0,0,.56,2.63,9.87,9.87,0,0,0,2.06,2.76c.55.53,2.33,1.91,5.36,4.15q5.38,4,7.39,7.08a11.4,11.4,0,0,1,2,6.24,10.61,10.61,0,0,1-3.43,7.84,11.52,11.52,0,0,1-8.34,3.33,12.17,12.17,0,0,1-6.85-2A18.42,18.42,0,0,1,554.08,559.66Z"/><path class="cls-2" d="M456.36,116.83a74.17,74.17,0,0,0-27.3-15.1,79.85,79.85,0,0,0-30.64-2.92A77.8,77.8,0,0,0,369,107.54a75.94,75.94,0,0,0-23.92,20.12q-10.27,12.9-14.22,31.07t.05,34.16a77.7,77.7,0,0,0,13.37,28.4,74.23,74.23,0,0,0,23.15,20.15,82.08,82.08,0,0,0,29.12,9.9,74,74,0,0,0,31.11-2.42q15.78-4.54,29.73-17.16l20,32.07c-13.85,12.62-22.94,17.49-38.75,22a113.49,113.49,0,0,1-46.83,3.59,118.42,118.42,0,0,1-43.5-14.89,116.91,116.91,0,0,1-34.58-30.11A113.24,113.24,0,0,1,293.6,202q-6-24.06-.07-51.33t21.36-46.68a113.34,113.34,0,0,1,36-30.25,117,117,0,0,1,44-13,118.67,118.67,0,0,1,45.75,4.5A112.42,112.42,0,0,1,481.66,88"/><polyline class="cls-2" points="390.81 230.7 532.96 57.01 582.44 57.01 486.13 174.57 582.44 287.16 531.96 287.16 461.56 204.79 429.01 244.32"/><polygon class="cls-2" points="390.81 107.96 390.81 224.26 429.01 177.44 429.01 107.96 390.81 107.96"/></g></g></svg>